<svg id="visual" viewBox="0 0 900 600" width="900" height="600" xmlns="http://www.w3.org/2000/svg" xmlns:xlink="http://www.w3.org/1999/xlink" version="1.1"><rect x="0" y="0" width="900" height="600" fill="#000000"></rect><path d="M0 370L25 371.3C50 372.7 100 375.3 150 371.7C200 368 250 358 300 361.8C350 365.7 400 383.3 450 387C500 390.7 550 380.3 600 380C650 379.7 700 389.3 750 386.5C800 383.7 850 368.3 875 360.7L900 353L900 601L875 601C850 601 800 601 750 601C700 601 650 601 600 601C550 601 500 601 450 601C400 601 350 601 300 601C250 601 200 601 150 601C100 601 50 601 25 601L0 601Z" fill="#c62368"></path><path d="M0 436L25 434C50 432 100 428 150 426.8C200 425.7 250 427.3 300 430.8C350 434.3 400 439.7 450 433.2C500 426.7 550 408.3 600 401.5C650 394.7 700 399.3 750 407.3C800 415.3 850 426.7 875 432.3L900 438L900 601L875 601C850 601 800 601 750 601C700 601 650 601 600 601C550 601 500 601 450 601C400 601 350 601 300 601C250 601 200 601 150 601C100 601 50 601 25 601L0 601Z" fill="#d53867"></path><path d="M0 475L25 476C50 477 100 479 150 481.2C200 483.3 250 485.7 300 485C350 484.3 400 480.7 450 473C500 465.3 550 453.7 600 445.7C650 437.7 700 433.3 750 438.3C800 443.3 850 457.7 875 464.8L900 472L900 601L875 601C850 601 800 601 750 601C700 601 650 601 600 601C550 601 500 601 450 601C400 601 350 601 300 601C250 601 200 601 150 601C100 601 50 601 25 601L0 601Z" fill="#e34c67"></path><path d="M0 498L25 496.3C50 494.7 100 491.3 150 490.3C200 489.3 250 490.7 300 495.3C350 500 400 508 450 513.5C500 519 550 522 600 524.3C650 526.7 700 528.3 750 527.8C800 527.3 850 524.7 875 523.3L900 522L900 601L875 601C850 601 800 601 750 601C700 601 650 601 600 601C550 601 500 601 450 601C400 601 350 601 300 601C250 601 200 601 150 601C100 601 50 601 25 601L0 601Z" fill="#ef5f67"></path><path d="M0 570L25 565.2C50 560.3 100 550.7 150 547C200 543.3 250 545.7 300 545.8C350 546 400 544 450 544.5C500 545 550 548 600 545.5C650 543 700 535 750 533.8C800 532.7 850 538.3 875 541.2L900 544L900 601L875 601C850 601 800 601 750 601C700 601 650 601 600 601C550 601 500 601 450 601C400 601 350 601 300 601C250 601 200 601 150 601C100 601 50 601 25 601L0 601Z" fill="#fa7268"></path></svg>